# Blender v2.79 (sub 0) OBJ File: ''
# www.blender.org
o Cube
v 0.700000 -1.000000 -1.110232
v 0.700000 -1.000000 1.110232
v -0.700000 -1.000000 1.110231
v -0.700000 -1.000000 -1.110232
v 0.700000 2.013287 -1.110231
v 0.700000 2.013287 1.110232
v -0.700000 2.013287 1.110231
v -0.700000 2.013287 -1.110232
v 1.260000 -1.000000 0.000000
v -1.260000 -1.000000 -0.000000
v 1.260000 2.013287 0.000001
v -1.260000 2.013287 -0.000000
v 0.985896 2.493997 0.000000
v 0.547720 2.493997 0.782458
v 0.547720 2.493997 -0.782457
v -0.547720 2.493997 -0.782457
v -0.547720 2.493997 0.782457
v -0.985896 2.493997 -0.000000
v -1.488424 -1.002284 1.488424
v 1.488424 -1.002284 1.488424
v -1.488424 -1.002284 -1.488424
v 1.488424 -1.002284 -1.488424
v -1.488424 -0.966204 1.488424
v 1.488424 -0.966204 1.488424
v -1.488424 -0.966204 -1.488424
v 1.488424 -0.966204 -1.488424
v 0.985896 3.712970 0.000000
v 0.547720 3.896703 0.782458
v 0.547720 4.370873 -0.782457
v -0.547720 4.794774 -0.782457
v -0.547720 4.370873 0.782457
v -0.985896 4.036252 -0.000000
vt 0.285778 0.996580
vt 0.278859 0.999641
vt 0.285778 0.999641
vt 0.278859 0.957959
vt 0.285778 0.957959
vt 0.278859 0.996580
vt 0.261561 0.957959
vt 0.254641 0.996580
vt 0.261561 0.957959
vt 0.254641 0.957959
vt 0.278859 0.957959
vt 0.261805 0.996824
vt 0.278834 0.996647
vt 0.261439 0.996824
vt 0.261561 0.999641
vt 0.300364 0.960252
vt 0.291121 0.987317
vt 0.300364 0.991315
vt 0.290863 0.960069
vt 0.286811 0.985675
vt 0.286811 0.960163
vt 0.278859 0.999641
vt 0.261561 0.999397
vt 0.254641 0.999641
vt 0.291121 0.960254
vt 0.302963 0.988398
vt 0.302963 0.960158
vt 0.300105 0.960067
vt 0.300105 0.994707
vt 0.290863 0.991133
vt 0.253692 0.925569
vt 0.285841 0.957410
vt 0.253692 0.957410
vt 0.309942 0.956442
vt 0.288035 0.934535
vt 0.288035 0.956442
vt 0.285841 0.925569
vt 0.309942 0.934535
vt 0.224385 0.952862
vt 0.234563 0.953412
vt 0.234563 0.958814
vt 0.228920 0.962165
vt 0.228809 0.949350
vt 0.222508 0.959534
vn 0.9683 0.2497 0.0000
vn 0.4947 0.3424 -0.7987
vn 0.9604 0.2785 0.0000
vn 0.5242 0.0000 0.8516
vn 1.0000 0.0000 0.0000
vn 0.4960 0.2879 0.8191
vn -0.5242 0.0000 0.8516
vn -0.9683 0.2497 0.0000
vn -0.5242 0.0000 -0.8516
vn -1.0000 0.0000 0.0000
vn 0.5242 0.0000 -0.8516
vn -0.4960 0.2879 -0.8191
vn 0.4960 0.2879 -0.8191
vn -0.4960 0.2879 0.8191
vn -0.4947 0.3424 -0.7987
vn -0.4947 0.3424 0.7987
vn 0.4884 0.6018 0.6319
vn -0.2529 0.8513 0.4595
vn 0.8948 0.4416 0.0656
vn 0.4947 0.3424 0.7987
vn -0.9604 0.2785 0.0000
vn -0.8430 0.5326 0.0749
vn -0.2984 0.8991 -0.3201
vn 0.5293 0.7291 -0.4338
vn 0.0000 -1.0000 0.0000
vn 0.0000 1.0000 0.0000
s 1
f 11/1/1 15/2/2 13/3/3
f 11/1/1 2/4/4 9/5/5
f 6/6/6 3/7/7 2/4/4
f 12/8/8 4/9/9 10/10/10
f 1/11/11 8/12/12 5/13/13
f 7/14/14 10/10/10 3/7/7
f 5/13/13 9/5/5 1/11/11
f 5/13/13 16/15/15 15/2/2
f 17/16/16 28/17/17 31/18/18
f 15/19/2 27/20/19 13/21/3
f 7/14/14 14/22/20 17/23/16
f 11/1/1 14/22/20 6/6/6
f 12/8/8 17/23/16 18/24/21
f 12/8/8 16/15/15 8/12/12
f 14/25/20 27/20/19 28/17/17
f 17/16/16 32/26/22 18/27/21
f 16/28/15 32/26/22 30/29/23
f 16/28/15 29/30/24 15/19/2
f 11/1/1 5/13/13 15/2/2
f 11/1/1 6/6/6 2/4/4
f 6/6/6 7/14/14 3/7/7
f 12/8/8 8/12/12 4/9/9
f 1/11/11 4/9/9 8/12/12
f 7/14/14 12/8/8 10/10/10
f 5/13/13 11/1/1 9/5/5
f 5/13/13 8/12/12 16/15/15
f 17/16/16 14/25/20 28/17/17
f 15/19/2 29/30/24 27/20/19
f 7/14/14 6/6/6 14/22/20
f 11/1/1 13/3/3 14/22/20
f 12/8/8 7/14/14 17/23/16
f 12/8/8 18/24/21 16/15/15
f 14/25/20 13/21/3 27/20/19
f 17/16/16 31/18/18 32/26/22
f 16/28/15 18/27/21 32/26/22
f 16/28/15 30/29/23 29/30/24
s off
f 21/31/25 20/32/25 19/33/25
f 24/34/26 25/35/26 23/36/26
f 21/31/25 22/37/25 20/32/25
f 24/34/26 26/38/26 25/35/26
s 1
f 32/39/22 28/40/17 27/41/19
f 29/42/24 32/39/22 27/41/19
f 32/39/22 31/43/18 28/40/17
f 29/42/24 30/44/23 32/39/22
